<svg width="34" height="37" viewBox="0 0 34 37" fill="none" xmlns="http://www.w3.org/2000/svg">
<path d="M33 4C31.9211 4.00123 24.0308 7.6755 23.2681 8.43795C22.5052 9.2004 22.076 10.2341 22.075 11.3123V21.4422C22.0864 22.1672 21.9535 22.887 21.6838 23.56C21.4141 24.233 21.0133 24.8456 20.5044 25.3623C19.9954 25.879 19.3887 26.2893 18.7196 26.5693C18.0505 26.8494 16.6068 14 16.6068 14C16.6068 14 15.1632 26.8494 14.4941 26.5693C13.825 26.2893 13.2183 25.879 12.7094 25.3623C12.2005 24.8456 11.7995 24.233 11.5299 23.56C11.2602 22.887 11.1272 22.1672 11.1387 21.4422V11.3123C11.1387 10.2338 10.71 9.1995 9.94681 8.43687C9.18365 7.67425 1.57925 5 0.5 5C-0.579252 5 4.95503 7.67425 4.19188 8.43687C3.42873 9.1995 3 10.2338 3 11.3123V22.5148C3 24.3004 3.35195 26.0686 4.03576 27.7184C4.71957 29.3681 10.2179 25.3015 11.4814 26.5642C12.7449 27.8268 9.74887 34.3939 11.3997 35.0773C13.0506 35.7605 14.82 36.1122 16.6068 36.1122C18.3937 36.1122 20.1631 35.7605 21.814 35.0773C23.4649 34.3939 20.4689 27.8268 21.7324 26.5642C22.996 25.3015 28.4942 29.3681 29.1778 27.7184C29.8617 26.0686 30.2137 24.3004 30.2137 22.5148V11.3123C30.2125 10.2341 29.7835 9.20038 29.0206 8.43795C28.2577 7.6755 34.0789 4.00123 33 4ZM28.4333 22.514C28.4333 25.6485 27.1873 28.6544 24.9694 30.8707C22.7515 33.087 19.7434 34.3323 16.6068 34.3323C13.4703 34.3323 10.4622 33.087 8.24426 30.8707C6.02636 28.6544 4.78035 25.6485 4.78035 22.514V11.3123C4.78557 10.7091 5.02901 10.1323 5.45772 9.70761C5.88642 9.28288 6.46566 9.04458 7.06934 9.04458C7.67303 9.04458 8.25227 9.28288 8.68096 9.70761C9.10966 10.1323 9.35312 10.7091 9.35833 11.3123V21.4422C9.35833 23.3634 10.122 25.2058 11.4814 26.5642C12.8407 27.9227 16.6068 36.1122 16.6068 36.1122C16.6068 36.1122 20.373 27.9227 21.7324 26.5642C23.0916 25.2058 23.8554 23.3634 23.8554 21.4422V11.3123C23.8554 10.7057 24.0964 10.1239 24.5258 9.69491C24.9551 9.26593 25.5372 9.02494 26.1443 9.02494C26.7515 9.02494 27.3336 9.26593 27.7629 9.69491C28.1921 10.1239 28.4333 10.7057 28.4333 11.3123V22.514Z" fill="url(#paint0_linear)"/>
<path d="M15.7167 9.3187V21.0462C15.7167 21.2822 15.8105 21.5085 15.9774 21.6753C16.1444 21.8422 16.3708 21.9358 16.6069 21.9358C16.843 21.9358 17.0694 21.8422 17.2363 21.6753C17.4033 21.5085 17.4971 21.2822 17.4971 21.0462V9.3187C18.6464 9.09741 19.6719 8.45598 20.3734 7.51967C21.0748 6.58334 33.6113 5.16436 33.5 4C33.3887 2.83564 20.638 2.00954 19.7718 1.22275C18.9058 0.435959 17.7773 0 16.6069 0C15.4364 0 14.308 0.435959 13.4419 1.22275C12.5758 2.00954 0.611208 3.53936 0.499991 4.70372C0.388757 5.86808 12.1389 6.58334 12.8404 7.51967C13.5419 8.45598 14.5674 9.09741 15.7167 9.3187ZM16.6069 1.78103C17.1854 1.78103 17.7509 1.95246 18.2319 2.27363C18.7129 2.59481 19.0878 3.0513 19.3091 3.5854C19.5305 4.11949 19.5884 4.70719 19.4756 5.27418C19.3627 5.84117 19.0841 6.36196 18.675 6.77073C18.2659 7.17949 17.7448 7.45785 17.1774 7.57061C16.61 7.68338 16.0219 7.62546 15.4875 7.40422C14.953 7.18296 14.4962 6.80831 14.1748 6.32762C13.8535 5.84694 13.6819 5.28183 13.682 4.70372C13.6829 3.92883 13.9913 3.18592 14.5397 2.638C15.088 2.09009 15.8314 1.78188 16.6069 1.78103Z" fill="url(#paint1_linear)"/>
<defs>
<linearGradient id="paint0_linear" x1="3.00006" y1="21.6789" x2="30.2138" y2="21.6789" gradientUnits="userSpaceOnUse">
<stop stop-color="#EC441E"/>
<stop offset="1" stop-color="#EE2A4A"/>
</linearGradient>
<linearGradient id="paint1_linear" x1="11.9018" y1="10.9679" x2="21.3119" y2="10.9679" gradientUnits="userSpaceOnUse">
<stop stop-color="#EC441E"/>
<stop offset="1" stop-color="#EE2A4A"/>
</linearGradient>
</defs>
</svg>
